<?xml version="1.0" encoding="utf-8"?>
<!-- Generator: Adobe Illustrator 22.1.0, SVG Export Plug-In . SVG Version: 6.00 Build 0)  -->
<svg version="1.1" id="Layer_1" xmlns="http://www.w3.org/2000/svg" xmlns:xlink="http://www.w3.org/1999/xlink" x="0px" y="0px"
	 viewBox="0 0 125 46" style="enable-background:new 0 0 125 46;" xml:space="preserve">
<style type="text/css">
	.st0{fill:#FFFFFF;}
	.st1{fill:#EF0919;}
</style>
<g>
	<g>
		<path class="st0" d="M65.5,5.5l-2,1.1c-0.5-0.8-1.3-1.2-2.2-1.2c-1.5,0-2.6,1.1-2.6,2.7c0,1.7,1.2,2.7,2.6,2.7
			c0.9,0,1.8-0.4,2.3-1.2l1.8,1.3c-0.8,1.3-2.3,2-4.1,2c-2.9,0-4.9-2-4.9-4.8c0-2.8,2-4.8,4.9-4.8C63.1,3.3,64.7,4.1,65.5,5.5z
			 M72.9,12.7l-0.7-1.9h-3.7l-0.7,1.9h-2.3L69,3.5h2.7l3.6,9.2L72.9,12.7L72.9,12.7z M71.5,8.8l-1.1-3.1l-1.1,3.1
			C69.2,8.8,71.5,8.8,71.5,8.8z M82.5,12.7l-4.3-5.6v5.6H76V3.5h2.1l4.3,5.6V3.5h2.2v9.2L82.5,12.7z M92.8,12.7l-0.7-1.9h-3.7
			l-0.7,1.9h-2.3l3.6-9.2h2.7l3.6,9.2L92.8,12.7L92.8,12.7z M91.4,8.8l-1.1-3.1l-1.1,3.1C89.1,8.8,91.4,8.8,91.4,8.8z M104.7,8.1
			c0,2.8-1.9,4.6-4.9,4.6h-4V3.5h4C102.8,3.5,104.7,5.3,104.7,8.1L104.7,8.1z M98.1,10.7h1.7c1.7,0,2.6-1.1,2.6-2.6
			s-0.8-2.6-2.6-2.6h-1.7V10.7z M111.9,12.7l-0.7-1.9h-3.7l-0.7,1.9h-2.3l3.6-9.2h2.7l3.6,9.2L111.9,12.7L111.9,12.7z M110.5,8.8
			l-1.1-3.1l-1.1,3.1H110.5L110.5,8.8z M57.1,27.5v-9.2h2.2v7.2h4.7v2L57.1,27.5z M64.8,27.5v-9.2h7.1v2H67v1.6h4.6v2H67v1.7H72v2
			L64.8,27.5z M80.1,27.5l-0.7-1.9h-3.7l-0.7,1.9h-2.3l3.6-9.2h2.7l3.6,9.2H80.1z M78.6,23.6l-1.1-3.1l-1.1,3.1
			C76.4,23.6,78.6,23.6,78.6,23.6z M90.7,21.3c0,1.5-0.9,2.5-2.6,2.8l2.7,3.5h-2.7l-2.5-3.5h-0.3v3.5h-2.2v-9.2h4.1
			C89.5,18.3,90.7,19.4,90.7,21.3z M85.3,22.2h1.8c0.8,0,1.3-0.3,1.3-1s-0.5-1-1.3-1h-1.8V22.2L85.3,22.2z M98.3,27.5L94,21.9v5.6
			h-2.2v-9.2h2.1l4.3,5.6v-5.6h2.2v9.2H98.3z M102,27.5v-9.2h2.2v9.2H102z M112.2,27.5l-4.3-5.6v5.6h-2.2v-9.2h2.1l4.3,5.6v-5.6h2.2
			v9.2H112.2z M123.9,19.5l-1.6,1.6c-0.5-0.5-1.2-0.8-2-0.8c-1.5,0-2.6,1.1-2.6,2.7c0,1.8,1.2,2.8,2.6,2.8c1.3,0,2.1-0.6,2.4-1.7
			h-2.3v-1.7h4.5c0,0.2,0,0.5,0,0.7c0,3-2.1,4.7-4.5,4.7c-2.8,0-5-1.9-5-4.8c0-2.8,2.1-4.8,5-4.8C121.9,18.1,123.1,18.6,123.9,19.5
			L123.9,19.5z M65.5,35.2l-2,1.1c-0.5-0.8-1.3-1.2-2.2-1.2c-1.5,0-2.6,1.1-2.6,2.7c0,1.7,1.2,2.7,2.6,2.7c0.9,0,1.8-0.4,2.3-1.2
			l1.8,1.3c-0.8,1.3-2.3,2-4.1,2c-2.9,0-4.9-2-4.9-4.8c0-2.8,2-4.8,4.9-4.8C63.1,33,64.7,33.8,65.5,35.2z M75.6,37.8
			c0,2.8-2,4.8-4.9,4.8s-4.9-2-4.9-4.8s2-4.8,4.9-4.8S75.5,35,75.6,37.8L75.6,37.8z M68,37.8c0,1.6,1.1,2.7,2.6,2.7s2.6-1.1,2.6-2.7
			s-1.1-2.7-2.6-2.7S68,36.2,68,37.8z M85.5,37.8c0,2.8-1.9,4.6-4.9,4.6h-4v-9.2h4C83.5,33.1,85.5,35,85.5,37.8L85.5,37.8z
			 M78.8,40.3h1.7c1.7,0,2.6-1.1,2.6-2.6c0-1.5-0.8-2.6-2.6-2.6h-1.7C78.8,35.2,78.8,40.3,78.8,40.3z M86.5,42.4v-9.2h7.1v2h-4.9
			v1.6h4.6v2h-4.6v1.7h4.9v2L86.5,42.4z"/>
	</g>
	<path class="st1" d="M23.2,0C10.4,0,0,10.3,0,22.9c0,12.7,10.4,22.9,23.2,22.9s23.2-10.3,23.2-22.9C46.3,10.3,36,0,23.2,0z"/>
	<path class="st0" d="M31.7,22.9l4.7-4.6c0.6-0.5,0.5-1.4-0.1-1.9c-0.6-0.5-1.4-0.6-1.9-0.1l-4.7,4.6l-4.5-4.4l4.7-4.6
		c0.6-0.5,0.5-1.4-0.1-1.9c-0.6-0.5-1.4-0.6-1.9-0.1l-4.7,4.6l-4.7-4.6C18,9.4,17.1,9.4,16.6,10c-0.5,0.5-0.6,1.4-0.1,1.9l4.7,4.6
		l-4.5,4.4L12,16.3c-0.6-0.5-1.4-0.5-1.9,0.1C9.6,17,9.5,17.8,10,18.3l4.7,4.6L10,27.5c-0.6,0.5-0.5,1.4,0.1,1.9
		c0.6,0.5,1.4,0.6,1.9,0.1l4.7-4.6l4.5,4.4l-4.7,4.6c-0.6,0.5-0.5,1.4,0.1,1.9c0.6,0.5,1.4,0.6,1.9,0.1l4.7-4.6l4.7,4.6
		c0.6,0.5,1.4,0.5,1.9-0.1c0.5-0.5,0.6-1.4,0.1-1.9l-4.7-4.6l4.5-4.4l4.7,4.6c0.6,0.5,1.4,0.5,1.9-0.1c0.5-0.5,0.6-1.4,0.1-1.9
		C36.3,27.5,31.7,22.9,31.7,22.9z M23.2,27.4l-4.5-4.4l4.5-4.4l4.5,4.4C27.7,22.9,23.2,27.4,23.2,27.4z"/>
</g>
</svg>
